<svg width="20" height="20" viewBox="0 0 20 20" fill="none" xmlns="http://www.w3.org/2000/svg">
<path d="M19.3092 15.2385C19.7482 15.8941 19.917 16.694 19.7802 17.4711C19.6435 18.2483 19.2118 18.9425 18.5754 19.4088C17.9389 19.875 17.147 20.0773 16.3649 19.9733C15.5829 19.8693 14.8713 19.4671 14.3788 18.8507C14.2849 18.7416 14.1917 18.6325 14.1001 18.5207C12.6994 16.8248 11.6114 14.8933 10.8867 12.8164C10.5871 11.9592 10.0981 11.1806 9.45615 10.5385C8.81419 9.8964 8.03576 9.40737 7.17875 9.10769C5.10314 8.38385 3.17262 7.29689 1.47723 5.89748C1.36809 5.80536 1.25586 5.71202 1.15006 5.61824C0.533412 5.12574 0.130939 4.41393 0.0267738 3.63156C-0.0773915 2.84919 0.124809 2.05684 0.591106 1.4201C1.0574 0.783367 1.75171 0.351512 2.52891 0.214843C3.30611 0.078174 4.10604 0.247278 4.76151 0.686752C5.3553 1.09368 5.8878 1.58351 6.34282 2.14135L6.59695 2.45272C7.59969 3.68267 8.278 5.18469 9.42074 6.2863L9.64926 6.50451C9.86684 6.71384 10.1352 6.86284 10.4279 6.93679C10.7207 7.01074 11.0276 7.00708 11.3185 6.9262C11.6093 6.84532 11.8741 6.69003 12.0867 6.47559C12.2992 6.26114 12.4522 5.99499 12.5306 5.70337L12.596 5.45676C12.873 4.42058 12.8838 3.30468 13.2895 2.31068L13.3589 2.14112C13.5745 1.61522 13.9167 1.15075 14.355 0.78899C14.7934 0.427232 15.3143 0.179397 15.8715 0.0675095C16.4286 -0.0443775 17.0048 -0.0168631 17.5488 0.147635C18.0927 0.312134 18.5877 0.608496 18.9895 1.0104C19.3914 1.4123 19.6877 1.90726 19.8523 2.45132C20.0168 2.99538 20.0444 3.57172 19.9326 4.12901C19.8208 4.68631 19.573 5.20736 19.2114 5.64582C18.8498 6.08428 18.3854 6.42657 17.8596 6.6423L17.6906 6.71154C16.6965 7.11791 15.5825 7.12861 14.5451 7.40532L14.2992 7.47125C14.0076 7.54946 13.7414 7.70236 13.5269 7.91488C13.3124 8.1274 13.157 8.39217 13.0761 8.68309C12.9952 8.97401 12.9915 9.281 13.0654 9.57378C13.1393 9.86656 13.2883 10.135 13.4976 10.3526L13.7157 10.5811C14.8172 11.7237 16.319 12.4023 17.5485 13.4054L17.8599 13.6596C18.4175 14.1138 18.9072 14.6455 19.3142 15.2385" fill="url(#paint0_linear_3279_1730)"/>
<path d="M3.95989 11.5128C4.2552 11.2124 4.60692 10.9732 4.99486 10.8089C5.3828 10.6447 5.79935 10.5586 6.22062 10.5556C6.64189 10.5527 7.0596 10.6329 7.44981 10.7917C7.84002 10.9505 8.19504 11.1847 8.49454 11.481C8.79403 11.7772 9.03211 12.1296 9.19512 12.5181C9.35812 12.9065 9.44283 13.3233 9.44442 13.7445C9.44601 14.1658 9.36444 14.5832 9.20438 14.9728C9.04431 15.3625 8.80892 15.7167 8.51167 16.0152C8.5035 16.0235 8.49521 16.0318 8.48693 16.04L5.35542 19.1091C4.76037 19.6862 3.96217 20.0062 3.13319 19.9999C2.3042 19.9936 1.51095 19.6616 0.924744 19.0754C0.338538 18.4893 0.00641836 17.6961 9.2052e-05 16.8672C-0.00623425 16.0383 0.313746 15.2402 0.890937 14.6451L3.95989 11.5128Z" fill="url(#paint1_linear_3279_1730)"/>
<defs>
<linearGradient id="paint0_linear_3279_1730" x1="0" y1="20" x2="20" y2="20" gradientUnits="userSpaceOnUse">
<stop stop-color="#0071EF"/>
<stop offset="1" stop-color="#149BFF"/>
</linearGradient>
<linearGradient id="paint1_linear_3279_1730" x1="0" y1="20" x2="9.44444" y2="20" gradientUnits="userSpaceOnUse">
<stop stop-color="#43C5AC"/>
<stop offset="1" stop-color="#8AD4C2"/>
</linearGradient>
</defs>
</svg>
